<?xml version="1.0" encoding="UTF-8"?>
<!DOCTYPE svg PUBLIC "-//W3C//DTD SVG 1.1//EN" "http://www.w3.org/Graphics/SVG/1.1/DTD/svg11.dtd">
<svg xmlns="http://www.w3.org/2000/svg" version="1.1" width="5297px" height="5271px" style="shape-rendering:geometricPrecision; text-rendering:geometricPrecision; image-rendering:optimizeQuality; fill-rule:evenodd; clip-rule:evenodd" xmlns:xlink="http://www.w3.org/1999/xlink">
<g><path style="opacity:1" fill="#182b76" d="M 2574.5,-0.5 C 2615.17,-0.5 2655.83,-0.5 2696.5,-0.5C 3217.87,14.578 3693.54,168.078 4123.5,460C 4483.21,708.901 4765.38,1026.07 4970,1411.5C 5189.96,1834.94 5289.29,2285.28 5268,2762.5C 5243.22,3236.47 5102.56,3672.14 4846,4069.5C 4602.44,4439.75 4287.27,4732.25 3900.5,4947C 3522.15,5152.92 3117.48,5260.76 2686.5,5270.5C 2652.5,5270.5 2618.5,5270.5 2584.5,5270.5C 2057.72,5257.06 1577.39,5102.56 1143.5,4807C 784.58,4557.46 503.08,4239.96 299,3854.5C 104.944,3480.61 5.11051,3082.94 -0.5,2661.5C -0.5,2643.83 -0.5,2626.17 -0.5,2608.5C 7.47872,2095.79 150.312,1624.79 428,1195.5C 520.464,1054.48 625.631,923.144 743.5,801.5C 746.899,799.612 749.899,797.112 752.5,794C 752.272,793.601 751.938,793.435 751.5,793.5C 765.167,779.167 779.167,765.167 793.5,751.5C 796.899,749.612 799.899,747.112 802.5,744C 802.272,743.601 801.938,743.435 801.5,743.5C 1128.47,427.4 1513.14,208.9 1955.5,88C 2158.51,34.2603 2364.84,4.7603 2574.5,-0.5 Z M 2930.5,344.5 C 3207.96,379.62 3470.29,462.787 3717.5,594C 4088.22,794.041 4384.72,1073.21 4607,1431.5C 4777.85,1711.03 4884.18,2013.7 4926,2339.5C 4830.67,2244.17 4735.33,2148.83 4640,2053.5C 4537.38,1705.9 4358.55,1405.07 4103.5,1151C 3852.51,903.907 3556.84,730.24 3216.5,630C 3121.3,534.632 3025.97,439.465 2930.5,344.5 Z M 1177.5,1141.5 C 1165.17,1153.17 1153.17,1165.17 1141.5,1177.5C 906.885,1418.86 739.385,1701.52 639,2025.5C 541.965,2122.7 444.799,2219.7 347.5,2316.5C 398.398,1956.88 525.898,1627.88 730,1329.5C 983.945,964.434 1314.44,692.268 1721.5,513C 1912.57,430.564 2111.24,375.231 2317.5,347C 2220.5,444 2123.5,541 2026.5,638C 1701.98,738.488 1418.98,906.321 1177.5,1141.5 Z M 4761.5,2635.5 C 4049.5,3346.83 3337.83,4058.5 2626.5,4770.5C 2625.76,4770.63 2625.09,4770.46 2624.5,4770C 1913,4058.5 1201.5,3347 490,2635.5C 489.333,2634.83 489.333,2634.17 490,2633.5C 1201.68,1921.65 1913.51,1209.99 2625.5,498.5C 3337.49,1209.99 4049.32,1921.65 4761,2633.5C 4761.46,2634.09 4761.63,2634.76 4761.5,2635.5 Z M 4274.5,4261.5 C 4270.17,4265.17 4266.17,4269.17 4262.5,4273.5C 3990.59,4542.4 3670.59,4733.57 3302.5,4847C 3180.63,4883.71 3056.63,4910.04 2930.5,4926C 3025.83,4830.67 3121.17,4735.33 3216.5,4640C 3590.91,4528.82 3910.08,4330.65 4174,4045.5C 4392.5,3806.32 4547.83,3529.99 4640,3216.5C 4735.33,3121.17 4830.67,3025.83 4926,2930.5C 4885.98,3241.24 4786.98,3531.58 4629,3801.5C 4530.14,3969.26 4411.97,4122.59 4274.5,4261.5 Z M 347.5,2953.5 C 444.799,3050.3 541.965,3147.3 639,3244.5C 734.47,3551.62 890.47,3822.28 1107,4056.5C 1361.8,4328.34 1667.96,4519.84 2025.5,4631C 2122.83,4728.33 2220.17,4825.67 2317.5,4923C 1916.29,4865.47 1555.29,4714.8 1234.5,4471C 902.312,4214.47 655.812,3892.3 495,3504.5C 422.885,3327.05 373.719,3143.38 347.5,2953.5 Z"/></g>
<g><path style="opacity:1" fill="#142b78" d="M 801.5,743.5 C 801.938,743.435 802.272,743.601 802.5,744C 799.899,747.112 796.899,749.612 793.5,751.5C 795.833,748.5 798.5,745.833 801.5,743.5 Z"/></g>
<g><path style="opacity:1" fill="#142b78" d="M 751.5,793.5 C 751.938,793.435 752.272,793.601 752.5,794C 749.899,797.112 746.899,799.612 743.5,801.5C 745.833,798.5 748.5,795.833 751.5,793.5 Z"/></g>
<g><path style="opacity:1" fill="#182b76" d="M 1807.5,1611.5 C 1815.58,1604.93 1823.24,1597.76 1830.5,1590C 1830.27,1589.6 1829.94,1589.43 1829.5,1589.5C 1864.14,1555.19 1898.81,1520.86 1933.5,1486.5C 1944.25,1477.26 1954.58,1467.42 1964.5,1457C 1964.27,1456.6 1963.94,1456.43 1963.5,1456.5C 1994.47,1425.86 2025.47,1395.19 2056.5,1364.5C 2066.78,1355.89 2076.45,1346.55 2085.5,1336.5C 2112.5,1308.83 2139.83,1281.5 2167.5,1254.5C 2175.91,1247.59 2183.91,1240.09 2191.5,1232C 2191.27,1231.6 2190.94,1231.43 2190.5,1231.5C 2214.47,1207.86 2238.47,1184.19 2262.5,1160.5C 2269.58,1154.93 2276.24,1148.76 2282.5,1142C 2282.27,1141.6 2281.94,1141.43 2281.5,1141.5C 2299.47,1123.86 2317.47,1106.19 2335.5,1088.5C 2341.11,1084.56 2346.11,1079.89 2350.5,1074.5C 2360.63,1063.87 2370.96,1053.37 2381.5,1043C 2382.45,1042.38 2383.28,1042.55 2384,1043.5C 2451.29,2158.5 2518.63,3273.5 2586,4388.5C 2587.29,4405.16 2587.96,4421.82 2588,4438.5C 2569,4419.5 2550,4400.5 2531,4381.5C 2530.33,4379.5 2529.67,4377.5 2529,4375.5C 2288.5,3454.15 2048,2532.81 1807.5,1611.5 Z"/></g>
<g><path style="opacity:1" fill="#182b76" d="M 2866.5,1042.5 C 2867.55,1042.35 2868.55,1042.52 2869.5,1043C 3055.83,1227.33 3242.17,1411.67 3428.5,1596C 3434.08,1601.08 3439.08,1606.58 3443.5,1612.5C 3202.67,2534.5 2961.83,3456.5 2721,4378.5C 2720.67,4379.5 2720.33,4380.5 2720,4381.5C 2701.67,4399.83 2683.33,4418.17 2665,4436.5C 2732.08,3305.18 2799.25,2173.84 2866.5,1042.5 Z"/></g>
<g><path style="opacity:1" fill="#142b78" d="M 2350.5,1074.5 C 2346.11,1079.89 2341.11,1084.56 2335.5,1088.5C 2339.89,1083.11 2344.89,1078.44 2350.5,1074.5 Z"/></g>
<g><path style="opacity:1" fill="#142b78" d="M 2281.5,1141.5 C 2281.94,1141.43 2282.27,1141.6 2282.5,1142C 2276.24,1148.76 2269.58,1154.93 2262.5,1160.5C 2268.5,1153.83 2274.83,1147.5 2281.5,1141.5 Z"/></g>
<g><path style="opacity:1" fill="#142b78" d="M 1177.5,1141.5 C 1167.05,1153.47 1155.71,1165.3 1143.5,1177C 1142.91,1177.46 1142.24,1177.63 1141.5,1177.5C 1153.17,1165.17 1165.17,1153.17 1177.5,1141.5 Z"/></g>
<g><path style="opacity:1" fill="#142b78" d="M 2190.5,1231.5 C 2190.94,1231.43 2191.27,1231.6 2191.5,1232C 2183.91,1240.09 2175.91,1247.59 2167.5,1254.5C 2174.83,1246.5 2182.5,1238.83 2190.5,1231.5 Z"/></g>
<g><path style="opacity:1" fill="#142b78" d="M 2085.5,1336.5 C 2076.45,1346.55 2066.78,1355.89 2056.5,1364.5C 2065.55,1354.45 2075.22,1345.11 2085.5,1336.5 Z"/></g>
<g><path style="opacity:1" fill="#142b78" d="M 1963.5,1456.5 C 1963.94,1456.43 1964.27,1456.6 1964.5,1457C 1954.58,1467.42 1944.25,1477.26 1933.5,1486.5C 1943.17,1476.17 1953.17,1466.17 1963.5,1456.5 Z"/></g>
<g><path style="opacity:1" fill="#142b78" d="M 1829.5,1589.5 C 1829.94,1589.43 1830.27,1589.6 1830.5,1590C 1823.24,1597.76 1815.58,1604.93 1807.5,1611.5C 1814.5,1603.83 1821.83,1596.5 1829.5,1589.5 Z"/></g>
<g><path style="opacity:1" fill="#182b76" d="M 1479.5,1941.5 C 1767.23,2683.85 2055.06,3426.18 2343,4168.5C 2348.02,4181.5 2352.68,4194.5 2357,4207.5C 1833,3683.5 1309,3159.5 785,2635.5C 784.308,2634.56 784.475,2633.9 785.5,2633.5C 786.239,2633.63 786.906,2633.46 787.5,2633C 1018.03,2402.3 1248.7,2171.8 1479.5,1941.5 Z"/></g>
<g><path style="opacity:1" fill="#182b76" d="M 3771.5,1940.5 C 3772.24,1940.37 3772.91,1940.54 3773.5,1941C 4004.68,2172.01 4235.68,2403.18 4466.5,2634.5C 3945.18,3156.32 3423.68,3677.99 2902,4199.5C 2903.15,4192.03 2905.15,4184.69 2908,4177.5C 2967.88,4017.85 3028.55,3858.52 3090,3699.5C 3316.88,3113.01 3544.05,2526.68 3771.5,1940.5 Z"/></g>
<g><path style="opacity:1" fill="#142b78" d="M 1479.5,1941.5 C 1248.7,2171.8 1018.03,2402.3 787.5,2633C 786.906,2633.46 786.239,2633.63 785.5,2633.5C 1015.97,2402.53 1246.63,2171.7 1477.5,1941C 1478.44,1940.31 1479.1,1940.47 1479.5,1941.5 Z"/></g>
<g><path style="opacity:1" fill="#142b78" d="M 4761.5,2635.5 C 4761.94,2635.43 4762.27,2635.6 4762.5,2636C 4051.17,3347.33 3339.83,4058.67 2628.5,4770C 2627.91,4770.46 2627.24,4770.63 2626.5,4770.5C 3337.83,4058.5 4049.5,3346.83 4761.5,2635.5 Z"/></g>
<g><path style="opacity:1" fill="#142b78" d="M 4274.5,4261.5 C 4274.94,4261.43 4275.27,4261.6 4275.5,4262C 4271.57,4266.44 4267.24,4270.27 4262.5,4273.5C 4266.17,4269.17 4270.17,4265.17 4274.5,4261.5 Z"/></g>
<g><path style="opacity:1" fill="#000000" d="M 745.5,4974.5 C 746.5,4974.5 747.5,4974.5 748.5,4974.5C 748.5,4975.5 748.5,4976.5 748.5,4977.5C 747.5,4977.5 746.5,4977.5 745.5,4977.5C 745.5,4976.5 745.5,4975.5 745.5,4974.5 Z"/></g>
</svg>
